<mxfile host="app.diagrams.net" agent="Mozilla/5.0 (Windows NT 10.0; Win64; x64) AppleWebKit/537.36 (KHTML, like Gecko) Chrome/130.0.0.0 Safari/537.36 Edg/130.0.0.0" version="24.8.6">
  <diagram name="Page-1" id="W7Ikmd8olFWmMt6km4ng">
    <mxGraphModel dx="1236" dy="569" grid="1" gridSize="10" guides="1" tooltips="1" connect="1" arrows="1" fold="1" page="1" pageScale="1" pageWidth="1169" pageHeight="827" math="0" shadow="0">
      <root>
        <mxCell id="0" />
        <mxCell id="1" parent="0" />
        <mxCell id="wU7WbFwf1WC6v4mwekpq-7" value="" style="edgeStyle=orthogonalEdgeStyle;rounded=0;orthogonalLoop=1;jettySize=auto;html=1;" edge="1" parent="1" source="wU7WbFwf1WC6v4mwekpq-1" target="wU7WbFwf1WC6v4mwekpq-6">
          <mxGeometry relative="1" as="geometry" />
        </mxCell>
        <mxCell id="wU7WbFwf1WC6v4mwekpq-1" value="start" style="ellipse;whiteSpace=wrap;html=1;" vertex="1" parent="1">
          <mxGeometry x="100" y="50" width="90" height="60" as="geometry" />
        </mxCell>
        <mxCell id="wU7WbFwf1WC6v4mwekpq-2" value="return result" style="ellipse;whiteSpace=wrap;html=1;" vertex="1" parent="1">
          <mxGeometry x="100" y="320" width="90" height="60" as="geometry" />
        </mxCell>
        <mxCell id="wU7WbFwf1WC6v4mwekpq-22" value="" style="edgeStyle=orthogonalEdgeStyle;rounded=0;orthogonalLoop=1;jettySize=auto;html=1;" edge="1" parent="1" source="wU7WbFwf1WC6v4mwekpq-3" target="wU7WbFwf1WC6v4mwekpq-21">
          <mxGeometry relative="1" as="geometry" />
        </mxCell>
        <mxCell id="wU7WbFwf1WC6v4mwekpq-3" value="start" style="ellipse;whiteSpace=wrap;html=1;" vertex="1" parent="1">
          <mxGeometry x="640" y="40" width="90" height="60" as="geometry" />
        </mxCell>
        <mxCell id="wU7WbFwf1WC6v4mwekpq-5" value="fractionsSubtract для десяткових дробів" style="text;html=1;align=center;verticalAlign=middle;resizable=0;points=[];autosize=1;strokeColor=none;fillColor=none;" vertex="1" parent="1">
          <mxGeometry x="20" y="20" width="240" height="30" as="geometry" />
        </mxCell>
        <mxCell id="wU7WbFwf1WC6v4mwekpq-9" value="" style="edgeStyle=orthogonalEdgeStyle;rounded=0;orthogonalLoop=1;jettySize=auto;html=1;" edge="1" parent="1" source="wU7WbFwf1WC6v4mwekpq-6" target="wU7WbFwf1WC6v4mwekpq-8">
          <mxGeometry relative="1" as="geometry" />
        </mxCell>
        <mxCell id="wU7WbFwf1WC6v4mwekpq-6" value="double fract1, fract2" style="shape=parallelogram;perimeter=parallelogramPerimeter;whiteSpace=wrap;html=1;fixedSize=1;" vertex="1" parent="1">
          <mxGeometry x="75" y="140" width="140" height="60" as="geometry" />
        </mxCell>
        <mxCell id="wU7WbFwf1WC6v4mwekpq-10" value="" style="edgeStyle=orthogonalEdgeStyle;rounded=0;orthogonalLoop=1;jettySize=auto;html=1;" edge="1" parent="1" source="wU7WbFwf1WC6v4mwekpq-8" target="wU7WbFwf1WC6v4mwekpq-2">
          <mxGeometry relative="1" as="geometry" />
        </mxCell>
        <mxCell id="wU7WbFwf1WC6v4mwekpq-8" value="fract1 - fract2" style="rounded=0;whiteSpace=wrap;html=1;" vertex="1" parent="1">
          <mxGeometry x="85" y="230" width="120" height="60" as="geometry" />
        </mxCell>
        <mxCell id="wU7WbFwf1WC6v4mwekpq-11" value="" style="edgeStyle=orthogonalEdgeStyle;rounded=0;orthogonalLoop=1;jettySize=auto;html=1;" edge="1" parent="1" source="wU7WbFwf1WC6v4mwekpq-12" target="wU7WbFwf1WC6v4mwekpq-15">
          <mxGeometry relative="1" as="geometry" />
        </mxCell>
        <mxCell id="wU7WbFwf1WC6v4mwekpq-12" value="start" style="ellipse;whiteSpace=wrap;html=1;" vertex="1" parent="1">
          <mxGeometry x="367.5" y="50" width="90" height="60" as="geometry" />
        </mxCell>
        <mxCell id="wU7WbFwf1WC6v4mwekpq-13" value="return fractionsSubtract(fract1, fract2)" style="ellipse;whiteSpace=wrap;html=1;" vertex="1" parent="1">
          <mxGeometry x="300" y="320" width="225" height="50" as="geometry" />
        </mxCell>
        <mxCell id="wU7WbFwf1WC6v4mwekpq-14" value="" style="edgeStyle=orthogonalEdgeStyle;rounded=0;orthogonalLoop=1;jettySize=auto;html=1;" edge="1" parent="1" source="wU7WbFwf1WC6v4mwekpq-15" target="wU7WbFwf1WC6v4mwekpq-17">
          <mxGeometry relative="1" as="geometry" />
        </mxCell>
        <mxCell id="wU7WbFwf1WC6v4mwekpq-15" value="int numerator1, denominator1, numerator2, denominator2" style="shape=parallelogram;perimeter=parallelogramPerimeter;whiteSpace=wrap;html=1;fixedSize=1;" vertex="1" parent="1">
          <mxGeometry x="342.5" y="140" width="140" height="60" as="geometry" />
        </mxCell>
        <mxCell id="wU7WbFwf1WC6v4mwekpq-16" value="" style="edgeStyle=orthogonalEdgeStyle;rounded=0;orthogonalLoop=1;jettySize=auto;html=1;" edge="1" parent="1" source="wU7WbFwf1WC6v4mwekpq-17" target="wU7WbFwf1WC6v4mwekpq-13">
          <mxGeometry relative="1" as="geometry" />
        </mxCell>
        <mxCell id="wU7WbFwf1WC6v4mwekpq-17" value="fract1 = numerator1 / denominator1&lt;div&gt;&amp;nbsp;fract2 = numerator2 / denominator2&lt;/div&gt;" style="rounded=0;whiteSpace=wrap;html=1;" vertex="1" parent="1">
          <mxGeometry x="352.5" y="230" width="120" height="60" as="geometry" />
        </mxCell>
        <mxCell id="wU7WbFwf1WC6v4mwekpq-18" value="fractionsSubtract для звичайних дробів" style="text;html=1;align=center;verticalAlign=middle;resizable=0;points=[];autosize=1;strokeColor=none;fillColor=none;" vertex="1" parent="1">
          <mxGeometry x="280" y="20" width="240" height="30" as="geometry" />
        </mxCell>
        <mxCell id="wU7WbFwf1WC6v4mwekpq-19" value="main" style="text;html=1;align=center;verticalAlign=middle;resizable=0;points=[];autosize=1;strokeColor=none;fillColor=none;" vertex="1" parent="1">
          <mxGeometry x="660" y="10" width="50" height="30" as="geometry" />
        </mxCell>
        <mxCell id="wU7WbFwf1WC6v4mwekpq-24" value="" style="edgeStyle=orthogonalEdgeStyle;rounded=0;orthogonalLoop=1;jettySize=auto;html=1;" edge="1" parent="1" source="wU7WbFwf1WC6v4mwekpq-21" target="wU7WbFwf1WC6v4mwekpq-23">
          <mxGeometry relative="1" as="geometry" />
        </mxCell>
        <mxCell id="wU7WbFwf1WC6v4mwekpq-21" value="cout fractionsSubtract(0.5, 0.2) fractionsSubtract(3, 5, 1, 2)" style="shape=parallelogram;perimeter=parallelogramPerimeter;whiteSpace=wrap;html=1;fixedSize=1;" vertex="1" parent="1">
          <mxGeometry x="577.5" y="130" width="215" height="80" as="geometry" />
        </mxCell>
        <mxCell id="wU7WbFwf1WC6v4mwekpq-23" value="end" style="ellipse;whiteSpace=wrap;html=1;" vertex="1" parent="1">
          <mxGeometry x="635" y="250" width="100" height="60" as="geometry" />
        </mxCell>
      </root>
    </mxGraphModel>
  </diagram>
</mxfile>
